<svg xmlns="http://www.w3.org/2000/svg" width="14" height="14"><path data-name="" d="M5.91.01a.653.653 0 00-.66.66v4.59h-2.4a.546.546 0 00-.39.93l4.17 4.16a.513.513 0 00.74 0l4.16-4.16a.543.543 0 00-.38-.93h-2.4V.67a.653.653 0 00-.66-.66H5.91zM14 10.29a.659.659 0 00-.66-.66H9.33l-1.34 1.34a1.394 1.394 0 01-1.98 0L4.67 9.63H.66a.659.659 0 00-.66.66v3.06a.653.653 0 00.66.66h12.68a.653.653 0 00.66-.66v-3.06zm-3.39 2.41a.546.546 0 01-.55.54.538.538 0 01-.54-.54.546.546 0 01.54-.55.555.555 0 01.55.55zm1.75 0a.546.546 0 01-.55.54.538.538 0 01-.54-.54.546.546 0 01.54-.55.555.555 0 01.55.55z" fill="#67ae3e" fill-rule="evenodd"/></svg>