<svg class="icon" xmlns="http://www.w3.org/2000/svg" width="53.032" height="53.97"><path d="M4.031 39.43a3.744 3.744 0 002.828-1.14l-.517-.51a3.054 3.054 0 01-2.278.92 3.191 3.191 0 110-6.38 3.045 3.045 0 012.278.91l.517-.52a3.759 3.759 0 00-2.817-1.12 3.922 3.922 0 10-.011 7.84zm10.066-5.86l-2.5 4.17-2.453-4.17h-.792v5.79h.715v-4.59l2.343 3.89h.352l2.344-3.88v4.58h.715v-5.79h-.726zm5.334 5.84a2.94 2.94 0 10-2.948-2.94 2.843 2.843 0 002.948 2.94zm0-.69a2.258 2.258 0 112.145-2.25 2.116 2.116 0 01-2.145 2.25zm8.459-5.15h-5.159v.7h2.189v5.09h.781v-5.09h2.189v-.7zm4.114-.04a2.522 2.522 0 00-2.233 1.19v-1.15h-.748v7.92h.781v-3.22a2.519 2.519 0 002.2 1.14 2.941 2.941 0 000-5.88zm-.055 5.19a2.257 2.257 0 112.157-2.25 2.116 2.116 0 01-2.157 2.25zm9.692-2.25a2.819 2.819 0 10-5.633 0 3.063 3.063 0 005.269 2l-.44-.51a2.268 2.268 0 01-1.771.76 2.139 2.139 0 01-2.277-2.01h4.841c0-.09.008-.18.008-.24zm-2.806-2.27a2.01 2.01 0 012.057 1.92h-4.1a2.008 2.008 0 012.046-1.92zm8.349-.63h-5.159v.7h2.189v5.09h.781v-5.09h2.189v-.7zm3.619 2.05l-1.705-.02v-2.03h-.781v5.79l2.332.01c1.54.02 2.377-.67 2.377-1.9 0-1.19-.771-1.84-2.223-1.85zm-.2 3.16l-1.507-.03v-2.57l1.507.02c1.078.01 1.628.41 1.628 1.27s-.559 1.32-1.626 1.31zM4.161 49.57a1.341 1.341 0 00.979-1.31c0-.96-.8-1.49-2.112-1.49H.478v5.79h2.629c1.507 0 2.233-.57 2.233-1.57a1.332 1.332 0 00-1.177-1.42zm-2.926-2.18h1.738c.891 0 1.386.32 1.386.97s-.5.99-1.386.99H1.238v-1.96zm1.837 4.55H1.238v-2.01h1.914c.979 0 1.419.32 1.419 1.01s-.518 1-1.497 1zm4.092.62h.7l3.85-4.6v4.6h.781v-5.79h-.687l-3.861 4.6v-4.6h-.781v5.79zm12.309-.68v-5.11h-4.268l-.077 1.94c-.077 1.56-.22 3.11-1.078 3.17h-.33v2.08h.737v-1.4h5.181v1.4h.738v-2.08h-.9zm-3.63-3.13l.066-1.28h2.783v4.41h-3.608c.585-.44.706-1.81.761-3.13zm11.121.92a2.759 2.759 0 00-2.805-2.94 2.787 2.787 0 00-2.827 2.94 3.063 3.063 0 005.269 2l-.44-.51a2.268 2.268 0 01-1.771.76 2.139 2.139 0 01-2.277-2.01h4.84c.002-.09.013-.18.013-.24zm-2.805-2.27a2.01 2.01 0 012.057 1.92h-4.1a2.008 2.008 0 012.045-1.92zm6.919 5.21a2.94 2.94 0 10-2.948-2.94 2.843 2.843 0 002.95 2.94zm0-.69a2.258 2.258 0 112.145-2.25 2.116 2.116 0 01-2.143 2.25zM19.275 7.7L3.71.27a1.56 1.56 0 00-.747-.26.973.973 0 00-1.038.85v15.29a.973.973 0 001.038.85 1.659 1.659 0 00.747-.25l15.565-7.44a.82.82 0 000-1.61z" fill="#67ae3e" fill-rule="evenodd"/></svg>