<svg class="icon" width="538" height="537" viewBox="0 0 538 538" fill="none" xmlns="http://www.w3.org/2000/svg"><path d="M393.143 279.624c4.855-4.851 4.855-12.722 0-17.581-4.852-4.856-12.727-4.856-17.582 0l-94.163 94.162V106.018c0-6.887-5.586-12.473-12.472-12.473-6.891 0-12.473 5.586-12.473 12.473V356.08l-94.162-94.163a12.423 12.423 0 00-17.586 0 12.254 12.254 0 00-3.617 8.856 12.778 12.778 0 003.617 8.851L260.066 394.99a12.364 12.364 0 008.86 3.621 12.861 12.861 0 008.851-3.621l115.366-115.366z" fill="#000"/><path d="M537.07 268.152c.02-108.456-65.308-206.24-165.509-247.742C271.355-21.086 156.021 1.867 79.355 78.58c-104.702 104.702-104.702 274.449 0 379.147 104.693 104.697 274.441 104.697 379.142 0a266.437 266.437 0 0078.573-189.575zm-511.347 0c0-134.072 109.131-243.2 243.203-243.2s243.199 109.128 243.199 243.2-109.127 243.203-243.199 243.203S25.723 402.224 25.723 268.152z" fill="#000"/></svg>