<svg width="57" height="57" fill="none" xmlns="http://www.w3.org/2000/svg"><g clip-path="url(#clip0)"><path d="M55.146 51.887L41.588 37.786A22.926 22.926 0 0046.984 23c0-12.682-10.318-23-23-23s-23 10.318-23 23 10.318 23 23 23c4.761 0 9.298-1.436 13.177-4.162l13.661 14.208c.571.593 1.34.92 2.162.92.78 0 1.518-.297 2.08-.837a3.004 3.004 0 00.082-4.242zM23.984 6c9.374 0 17 7.626 17 17 0 9.374-7.626 17-17 17-9.374 0-17-7.626-17-17 0-9.374 7.626-17 17-17z" fill="#B5B8B9"/></g><defs><clipPath id="clip0"><path fill="#fff" d="M0 0h56.966v56.966H0z"/></clipPath></defs></svg>