<svg class="icon" xmlns="http://www.w3.org/2000/svg" width="16" height="11.25"><path d="M6.347 7.7V3.21l4.32 2.26zM7.998 0c-3.365 0-5.6.16-5.6.16A2.3 2.3 0 00.791.84a2.8 2.8 0 00-.633 1.59 21.635 21.635 0 00-.161 2.59v1.21a21.539 21.539 0 00.161 2.59 2.844 2.844 0 00.633 1.59 2.657 2.657 0 001.768.68s1.276.13 5.436.16c3.365 0 5.6-.17 5.6-.17a2.233 2.233 0 001.607-.67 2.844 2.844 0 00.633-1.59 21.539 21.539 0 00.161-2.59V5.02a21.635 21.635 0 00-.161-2.59 2.8 2.8 0 00-.633-1.59 2.3 2.3 0 00-1.607-.68S11.363 0 8 0z" fill="#f5f5f5" fill-rule="evenodd"/></svg>