<svg width="20" height="20" class="icon" fill="none" xmlns="http://www.w3.org/2000/svg"><g filter="url(#filter0_d)" fill-rule="evenodd" clip-rule="evenodd" fill="#fff"><path d="M3.822 2.169l-.647.646a.463.463 0 000 .658l12.384 12.39a.464.464 0 00.658 0l.645-.646a.463.463 0 000-.658L4.48 2.169a.463.463 0 00-.658 0z"/><path d="M3.254 2.257a.872.872 0 011.234-.003l12.254 12.189a.873.873 0 01-1.23 1.238L3.256 3.492a.873.873 0 01-.003-1.235z"/><path d="M16.745 2.257a.873.873 0 01-.003 1.235L4.488 15.681a.872.872 0 11-1.23-1.238L15.51 2.253a.872.872 0 011.234.004z"/></g><defs><filter id="filter0_d" x="0" y="0" width="20" height="20" filterUnits="userSpaceOnUse" color-interpolation-filters="sRGB"><feFlood flood-opacity="0" result="BackgroundImageFix"/><feColorMatrix in="SourceAlpha" values="0 0 0 0 0 0 0 0 0 0 0 0 0 0 0 0 0 0 127 0"/><feOffset dy="1"/><feGaussianBlur stdDeviation="1.5"/><feColorMatrix values="0 0 0 0 0 0 0 0 0 0 0 0 0 0 0 0 0 0 0.47 0"/><feBlend in2="BackgroundImageFix" result="effect1_dropShadow"/><feBlend in="SourceGraphic" in2="effect1_dropShadow" result="shape"/></filter></defs></svg>