<svg class="icon" xmlns="http://www.w3.org/2000/svg" viewBox="0 0 414.23 512"><path d="M377.11 89c-39.14-56.55-101.08-89-170-89S76.26 32.45 37.17 89c-38.89 56.31-47.88 127.56-24.06 190.52 6.37 17.19 16.49 33.89 30 49.54L193.49 505.7a17.89 17.89 0 0027.26 0l150.36-176.59c13.58-15.74 23.69-32.43 30-49.48 23.83-63.07 14.85-134.33-24-190.63zm-9.5 178.07c-4.87 13.16-12.82 26.17-23.61 38.68l-.09.1-136.8 160.64L70.28 305.77c-10.78-12.5-18.73-25.51-23.65-38.8-19.69-52.06-12.22-111 20-157.59S150.11 35.8 207.11 35.8s108.19 26.82 140.5 73.58 39.68 105.53 19.95 157.71z"/><path d="M207.11 106.22a100.25 100.25 0 10100.26 100.25 100.37 100.37 0 00-100.26-100.25zm0 164.7a64.45 64.45 0 1164.44-64.45 64.52 64.52 0 01-64.44 64.45z"/></svg>